<svg width="285" height="285" viewBox="0 0 285 285" fill="none" xmlns="http://www.w3.org/2000/svg">
<g clip-path="url(#clip0)">
<path d="M277.515 135.9L144.464 2.857C142.565 0.955 140.375 0 137.9 0C135.428 0 133.241 0.955 131.338 2.857L117.061 17.132C115.158 19.035 114.208 21.221 114.208 23.699C114.208 26.177 115.158 28.363 117.061 30.266L229.268 142.47L117.062 254.677C115.159 256.58 114.209 258.77 114.209 261.241C114.209 263.718 115.159 265.908 117.062 267.811L131.339 282.082C133.241 283.987 135.428 284.936 137.901 284.936C140.379 284.936 142.566 283.985 144.464 282.082L277.515 149.038C279.417 147.136 280.366 144.945 280.366 142.471C280.366 139.997 279.417 137.807 277.515 135.9Z" fill="white"/>
<path d="M170.732 142.471C170.732 139.997 169.785 137.806 167.875 135.9L34.8333 2.857C32.9313 0.955 30.7413 0 28.2673 0C25.7933 0 23.6023 0.955 21.7003 2.857L7.42631 17.133C5.52031 19.036 4.57031 21.222 4.57031 23.7C4.57031 26.178 5.52031 28.364 7.42631 30.267L119.63 142.471L7.42631 254.677C5.52031 256.58 4.57031 258.77 4.57031 261.241C4.57031 263.718 5.52031 265.908 7.42631 267.811L21.6993 282.082C23.6023 283.987 25.7923 284.936 28.2663 284.936C30.7403 284.936 32.9303 283.985 34.8333 282.082L167.875 149.038C169.785 147.136 170.732 144.945 170.732 142.471Z" fill="white"/>
</g>
<defs>
<clipPath id="clip0">
<rect width="284.936" height="284.936" fill="white"/>
</clipPath>
</defs>
</svg>
