<svg width="1886" height="504" viewBox="0 0 1886 504" fill="none" xmlns="http://www.w3.org/2000/svg">
<path d="M0.974216 10.6553L311.359 277.05L345.97 8.86681L0.974216 10.6553Z" fill="#8A0099"/>
<path d="M1130.51 497.806L1546.18 45.6455L689.188 50.0881L1130.51 497.806Z" fill="#CC0000"/>
<path d="M868.295 456.165L950.062 5.73516L426.969 8.44688L868.295 456.165Z" fill="#6200EE"/>
<path d="M1882.95 0.899066L1426.19 241.27L1006.96 5.4402L1882.95 0.899066Z" fill="#D6002B"/>
<path d="M1485.95 2.95705L1426.19 241.27L1006.96 5.44016L1485.95 2.95705Z" fill="#7700D7"/>
<path d="M621.801 361.442L270.971 9.25556L946.962 5.75121L621.801 361.442Z" fill="#D9004B"/>
<path d="M621.801 361.442L270.971 9.25555L660.965 7.23381L621.801 361.442Z" fill="#8300C1"/>
<path d="M1183.02 209.53L936.962 5.80308L1455.95 3.11261L1183.02 209.53Z" fill="#D3006C"/>
<path d="M1235.96 4.25312L1183.02 209.53L936.962 5.80312L1235.96 4.25312Z" fill="#8800AC"/>
<path d="M112.973 10.0746L423.358 276.469L726.964 6.89166L112.973 10.0746Z" fill="#C4008C"/>
<path d="M612.966 7.48265L853.067 219.241L1097.96 4.96843L612.966 7.48265Z" fill="#AA00AA"/>
<path d="M879.962 6.09856L612.966 7.48267L853.067 219.241L879.962 6.09856Z" fill="#880088"/>
</svg>
