<svg width="818" height="718" viewBox="0 0 818 718" fill="none" xmlns="http://www.w3.org/2000/svg">
<g clip-path="url(#clip0)">
<path d="M180.976 22.265L105.618 169.247H120.831V289.106H44.167L0 375.252L547.257 655.83L728.233 302.843L180.976 22.265Z" fill="#F2F2F2"/>
<path d="M109.416 186.37H18.0948V277.691H109.416V186.37Z" fill="#3F3D56"/>
<path d="M410.093 266.276H410.49V260.568H409.817L409.425 252.451C409.381 251.549 408.98 250.701 408.312 250.093C407.643 249.486 406.76 249.169 405.857 249.213L375.437 250.684C374.99 250.705 374.551 250.815 374.147 251.006C373.742 251.197 373.379 251.465 373.079 251.797C372.778 252.128 372.545 252.515 372.394 252.936C372.243 253.357 372.177 253.804 372.198 254.251L375.223 316.818C375.266 317.72 375.667 318.569 376.336 319.176C377.005 319.783 377.888 320.1 378.79 320.056L409.211 318.586C409.658 318.564 410.096 318.455 410.501 318.264C410.905 318.073 411.268 317.804 411.569 317.473C411.87 317.141 412.102 316.754 412.253 316.333C412.404 315.912 412.471 315.465 412.449 315.018L410.093 266.276Z" fill="#2F2E41"/>
<path d="M392.785 283.143C396.897 282.945 400.082 279.721 399.899 275.944C399.717 272.166 396.235 269.265 392.123 269.464C388.011 269.663 384.826 272.886 385.009 276.664C385.191 280.441 388.673 283.342 392.785 283.143Z" fill="#6C63FF"/>
<path d="M551.753 678.648C698.33 678.648 817.155 667.788 817.155 654.391C817.155 640.994 698.33 630.134 551.753 630.134C405.175 630.134 286.351 640.994 286.351 654.391C286.351 667.788 405.175 678.648 551.753 678.648Z" fill="#3F3D56"/>
<path d="M322.617 613.499C329.323 638.29 352.294 653.643 352.294 653.643C352.294 653.643 364.391 628.803 357.685 604.013C350.979 579.222 328.008 563.868 328.008 563.868C328.008 563.868 315.91 588.709 322.617 613.499Z" fill="#3F3D56"/>
<path d="M332.471 608.171C350.873 626.085 353.121 653.623 353.121 653.623C353.121 653.623 325.533 652.117 307.131 634.203C288.728 616.289 286.481 588.751 286.481 588.751C286.481 588.751 314.069 590.258 332.471 608.171Z" fill="#6C63FF"/>
<path d="M505.73 25.5641C505.73 25.5641 507.706 32.1484 496.512 38.0742C485.319 43.9999 482.027 66.3862 495.196 72.9704C508.364 79.5546 512.314 88.1141 505.73 94.0398C499.146 99.9656 487.295 115.768 503.097 119.718C518.899 123.669 520.874 131.57 516.265 134.862C511.656 138.154 526.8 128.936 526.8 128.936C526.8 128.936 529.433 144.738 543.26 140.788C557.087 136.837 595.934 61.7772 576.181 51.2425C556.429 40.7078 505.73 25.5641 505.73 25.5641Z" fill="#2F2E41"/>
<path d="M556.747 583.76L552.466 623.713L571.016 635.128L588.139 632.274L579.577 583.76H556.747Z" fill="#9F616A"/>
<path d="M542.478 104.324C564.543 104.324 582.431 86.436 582.431 64.3706C582.431 42.3051 564.543 24.4175 542.478 24.4175C520.413 24.4175 502.525 42.3051 502.525 64.3706C502.525 86.436 520.413 104.324 542.478 104.324Z" fill="#9F616A"/>
<path d="M528.923 83.6336C528.923 83.6336 525.355 144.277 521.075 144.277C516.794 144.277 571.016 141.423 571.016 141.423C571.016 141.423 548.186 101.47 559.601 88.6279C571.016 75.7859 528.923 83.6336 528.923 83.6336Z" fill="#9F616A"/>
<path d="M588.139 403.971L569.589 475.316L583.858 596.602L551.039 593.748L538.197 403.971H588.139Z" fill="#2F2E41"/>
<path opacity="0.2" d="M588.139 403.971L569.589 475.316L583.858 596.602L551.039 593.748L538.197 403.971H588.139Z" fill="black"/>
<path d="M559.601 616.578C559.601 616.578 558.174 608.017 543.905 616.578C529.636 625.14 469.706 652.25 501.098 657.958C532.49 663.666 596.7 650.824 596.7 646.543C596.7 642.262 598.127 615.151 592.419 618.005C586.712 620.859 568.162 639.408 559.601 616.578Z" fill="#2F2E41"/>
<path d="M578.15 606.59C578.15 606.59 600.981 642.262 602.408 652.25C603.834 662.239 625.238 629.42 625.238 629.42L605.261 592.321L578.15 606.59Z" fill="#9F616A"/>
<path d="M502.525 409.679L528.209 495.292C528.209 495.292 573.87 616.578 576.723 615.151C579.577 613.724 613.823 605.163 615.25 600.882C616.676 596.602 572.443 481.023 572.443 481.023L566.735 406.825L502.525 409.679Z" fill="#2F2E41"/>
<path d="M629.519 623.713C625.622 623.444 621.74 624.4 618.414 626.447C615.088 628.494 612.485 631.529 610.969 635.128C605.261 647.97 598.127 649.397 596.7 650.824C595.273 652.251 600.981 682.215 596.7 685.069C592.419 687.923 588.139 717.888 602.408 717.888C616.677 717.888 639.507 702.192 638.08 699.338C636.653 696.484 636.653 676.508 640.934 667.946C645.214 659.385 652.349 645.116 640.934 636.555C629.519 627.993 629.519 623.713 629.519 623.713Z" fill="#2F2E41"/>
<path d="M493.964 276.978L491.11 302.662C491.11 302.662 469.707 324.065 462.572 349.749C455.438 375.433 396.935 418.24 414.058 423.948C431.18 429.655 451.157 432.509 501.098 423.948C551.039 415.386 629.518 433.936 629.518 386.848C629.518 386.848 639.507 374.006 646.641 392.556C651.667 405.226 657.383 417.611 663.764 429.655C663.764 429.655 680.887 399.69 675.179 386.848C669.471 374.006 675.179 375.433 668.045 361.164C660.91 346.895 625.238 294.1 610.969 291.247C596.7 288.393 569.589 251.294 571.016 247.013C572.443 242.732 493.964 276.978 493.964 276.978Z" fill="#6C63FF"/>
<path d="M571.016 117.166C571.016 117.166 512.513 130.008 509.659 138.569C508.054 143.385 500.58 152.264 494.347 159.111C483.825 170.5 476.829 184.694 474.207 199.976C472.719 209.079 478.976 217.265 481.835 227.75C490.396 259.141 496.817 251.294 488.256 274.124C479.695 296.954 531.063 305.515 551.039 295.527C571.016 285.539 593.133 226.323 593.133 219.188C593.133 212.054 612.396 131.434 596.7 125.727C581.004 120.019 571.016 117.166 571.016 117.166Z" fill="#575A88"/>
<path d="M489.683 185.656L472.56 261.282L416.198 286.252C416.198 286.252 373.391 276.264 371.964 291.96C371.033 302.207 420.479 306.229 420.479 306.229L502.525 274.124L521.075 204.206L489.683 185.656Z" fill="#9F616A"/>
<path d="M509.659 157.119C509.659 157.119 473.987 178.522 482.548 189.937C491.11 201.352 512.513 219.902 518.221 219.902C523.928 219.902 528.209 185.656 528.209 175.668C528.209 165.68 509.659 157.119 509.659 157.119Z" fill="#575A88"/>
<path d="M545.353 12.4896C545.353 12.4896 547.541 19.7836 535.141 26.3482C522.741 32.9127 519.094 57.7123 533.682 65.0063C548.27 72.3002 552.647 81.7824 545.353 88.347C538.059 94.9116 524.929 112.417 542.435 116.794C559.94 121.17 562.129 129.923 557.023 133.57C551.917 137.217 568.693 127.005 568.693 127.005C568.693 127.005 571.611 144.511 586.928 140.134C602.246 135.758 617.529 56.2053 600.454 35.7159C584.578 16.6644 545.353 12.4896 545.353 12.4896Z" fill="#2F2E41"/>
<path d="M540.693 4.98181C540.697 -5.70425 572.667 1.97419 586.374 16.8943C595.866 27.2263 610.283 42.7704 598.202 53.7275C586.121 64.6845 618.91 79.048 627.704 83.4029C636.497 87.7578 653.86 101.075 638.183 110.009C622.506 118.944 622.758 127.962 628.658 130.097C634.558 132.233 615.65 126.923 615.65 126.923C615.65 126.923 617.561 144.566 601.63 144.482C585.7 144.397 539.998 56.8505 550.916 32.5162C561.068 9.88965 540.693 4.98181 540.693 4.98181Z" fill="#2F2E41"/>
<path d="M547.618 2.63996C504.865 0.0655509 500.575 32.247 500.575 32.247C500.87 50.8705 530.445 41.7961 538.659 44.5724C548.569 37.4435 567.671 23.9548 581.333 14.3286C571.414 7.34483 559.731 3.29413 547.618 2.63996Z" fill="#2F2E41"/>
<path d="M362.646 184.776L358.539 183.432C343.881 178.49 334.252 175.334 330.822 167.603C330.144 166.143 329.765 164.562 329.708 162.954C329.652 161.345 329.918 159.742 330.493 158.238C331.067 156.734 331.937 155.361 333.051 154.2C334.166 153.039 335.502 152.113 336.98 151.477C338.721 150.716 340.606 150.343 342.505 150.383C344.404 150.424 346.271 150.878 347.977 151.712C348.503 149.887 349.42 148.199 350.664 146.763C351.908 145.328 353.45 144.181 355.182 143.402C356.646 142.732 358.229 142.363 359.838 142.316C361.447 142.27 363.048 142.546 364.548 143.129C366.049 143.713 367.416 144.591 368.571 145.712C369.725 146.834 370.643 148.175 371.27 149.658C374.7 157.389 370.578 166.646 364.405 180.829L362.646 184.776Z" fill="#FF6584"/>
<path d="M401.381 214.487L398.585 213.572C388.608 210.208 382.054 208.06 379.719 202.798C379.257 201.804 379 200.728 378.961 199.633C378.923 198.538 379.104 197.447 379.495 196.423C379.886 195.4 380.478 194.465 381.237 193.675C381.995 192.884 382.905 192.254 383.911 191.821C385.096 191.303 386.379 191.049 387.671 191.077C388.964 191.105 390.235 191.413 391.396 191.981C391.754 190.739 392.378 189.59 393.225 188.613C394.072 187.636 395.122 186.855 396.301 186.325C397.297 185.869 398.374 185.618 399.47 185.586C400.565 185.554 401.655 185.742 402.676 186.139C403.697 186.536 404.628 187.134 405.414 187.897C406.2 188.661 406.825 189.574 407.251 190.583C409.586 195.846 406.78 202.147 402.578 211.801L401.381 214.487Z" fill="#FF6584"/>
<path d="M376.974 84.7316L374.322 82.2765C364.906 73.4052 358.688 67.6459 358.779 60.5726C358.773 59.2265 359.037 57.8928 359.555 56.6505C360.073 55.4082 360.836 54.2826 361.797 53.3401C362.758 52.3977 363.899 51.6577 365.151 51.1639C366.403 50.6702 367.742 50.4326 369.088 50.4654C370.676 50.4944 372.239 50.8686 373.668 51.5622C375.097 52.2558 376.358 53.2522 377.363 54.482C378.4 53.2784 379.686 52.3149 381.133 51.6584C382.579 51.0018 384.152 50.668 385.74 50.68C387.086 50.6819 388.418 50.9539 389.657 51.4798C390.896 52.0056 392.018 52.7748 392.954 53.7417C393.891 54.7085 394.624 55.8535 395.11 57.1087C395.596 58.364 395.826 59.704 395.785 61.0495C395.693 68.1229 389.329 73.72 379.688 82.3457L376.974 84.7316Z" fill="#FF6584"/>
<path d="M719.867 596.953H667.281V655.69H719.867V596.953Z" fill="#2F2E41"/>
<path d="M733.857 561L761.192 608.345L788.527 655.691H733.857H679.188L706.523 608.345L733.857 561Z" fill="#3F3D56"/>
<path d="M109.641 640H106.248V628.17H93.3457V640H89.9707V614.406H93.3457V625.41H106.248V614.406H109.641V640ZM114.264 630.314C114.264 628.451 114.627 626.775 115.354 625.287C116.092 623.799 117.111 622.65 118.412 621.842C119.725 621.033 121.219 620.629 122.895 620.629C125.484 620.629 127.576 621.525 129.17 623.318C130.775 625.111 131.578 627.496 131.578 630.473V630.701C131.578 632.553 131.221 634.217 130.506 635.693C129.803 637.158 128.789 638.301 127.465 639.121C126.152 639.941 124.641 640.352 122.93 640.352C120.352 640.352 118.26 639.455 116.654 637.662C115.061 635.869 114.264 633.496 114.264 630.543V630.314ZM117.533 630.701C117.533 632.811 118.02 634.504 118.992 635.781C119.977 637.059 121.289 637.697 122.93 637.697C124.582 637.697 125.895 637.053 126.867 635.764C127.84 634.463 128.326 632.646 128.326 630.314C128.326 628.229 127.828 626.541 126.832 625.252C125.848 623.951 124.535 623.301 122.895 623.301C121.289 623.301 119.994 623.939 119.01 625.217C118.025 626.494 117.533 628.322 117.533 630.701ZM134.795 630.314C134.795 628.451 135.158 626.775 135.885 625.287C136.623 623.799 137.643 622.65 138.943 621.842C140.256 621.033 141.75 620.629 143.426 620.629C146.016 620.629 148.107 621.525 149.701 623.318C151.307 625.111 152.109 627.496 152.109 630.473V630.701C152.109 632.553 151.752 634.217 151.037 635.693C150.334 637.158 149.32 638.301 147.996 639.121C146.684 639.941 145.172 640.352 143.461 640.352C140.883 640.352 138.791 639.455 137.186 637.662C135.592 635.869 134.795 633.496 134.795 630.543V630.314ZM138.064 630.701C138.064 632.811 138.551 634.504 139.523 635.781C140.508 637.059 141.82 637.697 143.461 637.697C145.113 637.697 146.426 637.053 147.398 635.764C148.371 634.463 148.857 632.646 148.857 630.314C148.857 628.229 148.359 626.541 147.363 625.252C146.379 623.951 145.066 623.301 143.426 623.301C141.82 623.301 140.525 623.939 139.541 625.217C138.557 626.494 138.064 628.322 138.064 630.701ZM161.496 631.193L159.457 633.32V640H156.205V613H159.457V629.33L161.197 627.238L167.121 620.98H171.076L163.676 628.926L171.938 640H168.123L161.496 631.193ZM181.975 640.352C179.396 640.352 177.299 639.508 175.682 637.82C174.064 636.121 173.256 633.854 173.256 631.018V630.42C173.256 628.533 173.613 626.852 174.328 625.375C175.055 623.887 176.062 622.727 177.352 621.895C178.652 621.051 180.059 620.629 181.57 620.629C184.043 620.629 185.965 621.443 187.336 623.072C188.707 624.701 189.393 627.033 189.393 630.068V631.422H176.508C176.555 633.297 177.1 634.814 178.143 635.975C179.197 637.123 180.533 637.697 182.15 637.697C183.299 637.697 184.271 637.463 185.068 636.994C185.865 636.525 186.562 635.904 187.16 635.131L189.146 636.678C187.553 639.127 185.162 640.352 181.975 640.352ZM181.57 623.301C180.258 623.301 179.156 623.781 178.266 624.742C177.375 625.691 176.824 627.027 176.613 628.75H186.141V628.504C186.047 626.852 185.602 625.574 184.805 624.672C184.008 623.758 182.93 623.301 181.57 623.301ZM192.381 630.332C192.381 627.414 193.072 625.07 194.455 623.301C195.838 621.52 197.648 620.629 199.887 620.629C202.113 620.629 203.877 621.391 205.178 622.914V613H208.43V640H205.441L205.283 637.961C203.982 639.555 202.172 640.352 199.852 640.352C197.648 640.352 195.85 639.449 194.455 637.645C193.072 635.84 192.381 633.484 192.381 630.578V630.332ZM195.633 630.701C195.633 632.857 196.078 634.545 196.969 635.764C197.859 636.982 199.09 637.592 200.66 637.592C202.723 637.592 204.229 636.666 205.178 634.814V626.078C204.205 624.285 202.711 623.389 200.695 623.389C199.102 623.389 197.859 624.004 196.969 625.234C196.078 626.465 195.633 628.287 195.633 630.701Z" fill="black"/>
</g>
<defs>
<clipPath id="clip0">
<rect width="817.155" height="717.888" fill="white"/>
</clipPath>
</defs>
</svg>
