<?xml version="1.0" encoding="iso-8859-1"?>
<!-- Generator: Adobe Illustrator 21.0.0, SVG Export Plug-In . SVG Version: 6.00 Build 0)  -->
<svg xmlns="http://www.w3.org/2000/svg" xmlns:xlink="http://www.w3.org/1999/xlink" version="1.1" id="Capa_1" x="0px" y="0px" viewBox="0 0 511.31 511.31" style="enable-background:new 0 0 511.31 511.31;" xml:space="preserve" width="512" height="512">
<g>
	<path style="fill:#FF3D43;" d="M484.529,133.848c-1.423-1.602-3.463-2.518-5.605-2.518H209.585c-2.142,0-4.182,0.916-5.605,2.518   c-1.423,1.601-2.094,3.733-1.843,5.861l39.942,338.495c2.227,18.873,18.238,33.105,37.242,33.105h129.866   c19.005,0,35.016-14.232,37.242-33.105l39.942-338.495C486.622,137.581,485.951,135.448,484.529,133.848z"/>
	<path style="fill:#D72E2E;" d="M484.529,133.848c-1.423-1.602-3.463-2.518-5.605-2.518H445.18c2.143,0,4.183,0.916,5.605,2.518   c1.423,1.601,2.094,3.733,1.843,5.861l-39.942,338.495c-2.227,18.873-18.237,33.105-37.242,33.105h33.743   c19.005,0,35.016-14.232,37.242-33.105l39.942-338.495C486.622,137.581,485.951,135.448,484.529,133.848z"/>
	<path style="fill:#A58260;" d="M302.818,381.161H37.189c-14.683,0-26.629,11.945-26.629,26.629v17.195   c0,14.684,11.946,26.629,26.629,26.629h265.628c14.684,0,26.629-11.945,26.629-26.629V407.79   C329.447,393.107,317.501,381.161,302.818,381.161z"/>
	<path style="fill:#8C6B50;" d="M302.818,381.161h-35.412c14.684,0,26.629,11.945,26.629,26.629v17.195   c0,14.684-11.945,26.629-26.629,26.629h35.412c14.684,0,26.629-11.945,26.629-26.629V407.79   C329.447,393.107,317.501,381.161,302.818,381.161z"/>
	<path style="fill:#FFDF65;" d="M308.143,353.123H31.906c-11.758,0-21.325,9.566-21.325,21.325c0,11.758,9.566,21.324,21.325,21.324   h276.237c11.759,0,21.325-9.566,21.325-21.324C329.468,362.69,319.902,353.123,308.143,353.123z"/>
	<path style="fill:#FFCD2C;" d="M308.143,353.123h-35.412c11.759,0,21.325,9.566,21.325,21.325c0,11.758-9.566,21.324-21.325,21.324   h35.412c11.759,0,21.325-9.566,21.325-21.324C329.468,362.69,319.902,353.123,308.143,353.123z"/>
	<path style="fill:#FFBB64;" d="M320.138,436.614H19.911c-10.657,0-19.327,8.67-19.327,19.327v18.511   c0,20.323,16.534,36.857,36.857,36.857h265.168c20.322,0,36.856-16.534,36.856-36.857v-18.511   C339.465,445.284,330.795,436.614,320.138,436.614z"/>
	<path style="fill:#FFBB64;" d="M339.357,340.565c-9.31-54.138-41.602-95.233-93.386-118.842c-48.974-22.33-102.918-22.33-151.893,0   c-51.784,23.609-84.076,64.704-93.386,118.842c-0.072,0.42-0.108,0.846-0.108,1.271c0,14.281,10.589,25.899,23.606,25.899h291.67   c13.016,0,23.605-11.618,23.605-25.899C339.465,341.41,339.429,340.984,339.357,340.565z"/>
	<path style="fill:#FFAD47;" d="M320.138,436.614H284.46c10.657,0,19.327,8.67,19.327,19.327v18.511   c0,20.323-16.534,36.857-36.856,36.857h35.678c20.322,0,36.856-16.534,36.856-36.857v-18.511   C339.465,445.284,330.795,436.614,320.138,436.614z"/>
	<path style="fill:#FFAD47;" d="M339.357,340.565c-9.31-54.138-41.602-95.233-93.386-118.842   c-30.151-13.748-62.186-19.018-93.785-15.838c19.727,1.985,39.284,7.255,58.107,15.838c51.784,23.609,84.076,64.704,93.386,118.842   c0.072,0.42,0.108,0.846,0.108,1.271c0,14.281-10.59,25.899-23.605,25.899h35.678c13.016,0,23.605-11.618,23.605-25.899   C339.465,341.41,339.429,340.984,339.357,340.565z"/>
	<path style="fill:#E0E0E0;" d="M333.634,0h-66.046c-4.142,0-7.5,3.357-7.5,7.5v31.922c0,4.143,3.358,7.5,7.5,7.5h53.205v50.934   c0,4.143,3.357,7.5,7.5,7.5h31.922c4.143,0,7.5-3.357,7.5-7.5V34.081C367.715,15.289,352.426,0,333.634,0z"/>
	<path style="fill:#C4C4C4;" d="M320.793,70.855v27c0,4.143,3.357,7.5,7.5,7.5h31.922c4.143,0,7.5-3.357,7.5-7.5v-27H320.793z"/>
	<path style="fill:#FFDF65;" d="M503.226,90.355H185.282c-4.142,0-7.5,3.357-7.5,7.5v40.975c0,4.143,3.358,7.5,7.5,7.5h317.943   c4.143,0,7.5-3.357,7.5-7.5V97.855C510.726,93.713,507.368,90.355,503.226,90.355z"/>
	<path style="fill:#FFCD2C;" d="M503.226,90.355h-27v55.975h27c4.143,0,7.5-3.357,7.5-7.5V97.855   C510.726,93.713,507.368,90.355,503.226,90.355z"/>
</g>















</svg>
