<svg width="706" height="720" viewBox="0 0 706 720" fill="none" xmlns="http://www.w3.org/2000/svg">
<g clip-path="url(#clip0)">
<path d="M655.726 300.428C614.099 136.742 470.265 18.5837 301.435 13.8444C212.18 11.3389 118.258 40.9409 49.8768 144.529C-72.3629 329.704 57.3887 457.666 147.848 518.47C191.551 547.906 230.93 583.299 264.844 623.626C325.946 696.133 443.493 786.235 583.486 645.06C684.954 542.736 683.453 409.459 655.726 300.428Z" fill="#F2F2F2"/>
<path d="M321.926 201.384C321.926 201.384 330.437 220.409 312.914 223.914C295.39 227.419 333.441 244.942 333.441 244.942L362.981 239.936L378.001 228.42C378.001 228.42 347.961 210.396 351.966 196.377C355.972 182.358 321.926 201.384 321.926 201.384Z" fill="#FFB8B8"/>
<path opacity="0.1" d="M321.926 201.384C321.926 201.384 330.437 220.409 312.914 223.914C295.39 227.419 333.441 244.942 333.441 244.942L362.981 239.936L378.001 228.42C378.001 228.42 347.961 210.396 351.966 196.377C355.972 182.358 321.926 201.384 321.926 201.384Z" fill="black"/>
<path d="M36.7544 119.273C19.396 119.273 8.83545 118.285 8.60449 118.262L8.79883 116.272C9.31006 116.322 60.6904 121.121 124.199 109.274C182.744 98.353 263.876 70.6436 317.91 0.655769L318.417 0L319.155 0.375999C319.852 0.730489 389.802 36.1445 471.9 61.8203C520.082 76.8892 562.954 85.7041 599.325 88.02C644.657 90.9082 679.912 83.6494 704.123 66.4517L705.281 68.0825C680.683 85.5542 644.982 92.9326 599.185 90.0152C562.652 87.6875 519.618 78.8413 471.278 63.7217C393.563 39.4136 326.717 6.39944 318.988 2.5303C295.014 33.3726 263.873 58.6485 226.42 77.6587C196.268 92.9639 161.98 104.265 124.51 111.25C95.5611 116.575 66.1887 119.26 36.7544 119.273V119.273Z" fill="#2F2E41"/>
<path d="M60.9023 118.658L92.3123 116.075L79.7023 158.267L60.9023 118.658Z" fill="#6C63FF"/>
<path d="M127.054 110.767L137.702 141.267L149.812 105.756L127.054 110.767Z" fill="#6C63FF"/>
<path d="M221.828 77.5668L251.702 99.2668L245.864 66.8838L221.828 77.5668Z" fill="#6C63FF"/>
<path d="M372.272 24.7354L375.702 67.2673L394.786 36.2374L372.272 24.7354Z" fill="#6C63FF"/>
<path d="M585.415 88.8613L607.702 135.267L626.671 88.8613H585.415Z" fill="#6C63FF"/>
<path d="M451.776 57.373L451.702 103.267L478.626 65.982L451.776 57.373Z" fill="#6C63FF"/>
<path d="M336.945 202.575C361.664 202.575 381.702 182.537 381.702 157.818C381.702 133.1 361.664 113.062 336.945 113.062C312.227 113.062 292.188 133.1 292.188 157.818C292.188 182.537 312.227 202.575 336.945 202.575Z" fill="#FF6584"/>
<path d="M413.549 259.462L424.563 327.554L470.125 365.605C470.125 365.605 501.667 383.629 486.647 395.145C471.627 406.66 454.354 375.368 454.354 375.368C454.354 375.368 408.792 358.846 403.285 337.317C397.777 315.788 384.32 277.973 384.32 277.973L413.549 259.462Z" fill="#FFB8B8"/>
<path d="M255.836 470.246C255.836 470.246 262.345 532.33 260.843 536.836C259.341 541.342 263.847 612.438 263.847 612.438L292.385 605.929C292.385 605.929 296.641 568.629 293.136 532.08C293.136 532.08 303.65 497.533 293.637 477.506C283.623 457.479 255.836 470.246 255.836 470.246Z" fill="#FFB8B8"/>
<path d="M344.205 494.029C344.205 494.029 358.725 537.087 367.737 546.099C367.737 546.099 381.005 609.935 394.523 612.438C408.041 614.941 420.057 600.923 420.057 600.923C420.057 600.923 404.536 543.345 395.024 534.333L383.508 487.27L344.205 494.029Z" fill="#FFB8B8"/>
<path d="M295.89 599.921H260.843L264.848 641.477C264.848 641.477 267.351 679.528 263.346 685.536C259.341 691.544 255.836 719.588 269.855 718.586C283.874 717.585 290.382 710.57 290.382 707.566C290.382 704.562 291.884 670.015 295.389 664.007C298.894 657.999 298.894 644.481 292.886 642.478C286.878 640.476 295.89 599.921 295.89 599.921Z" fill="#2F2E41"/>
<path d="M387.013 608.432L407.04 643.98C407.04 643.98 403.535 654.495 408.041 662.505C412.547 670.516 413.548 685.536 413.548 691.544C413.548 697.553 420.558 720.586 436.079 718.584C451.6 716.581 445.091 697.553 445.091 697.553L433.075 649.488L420.057 595.415L387.013 608.432Z" fill="#2F2E41"/>
<path d="M274.862 276.986L269.354 312.033L232.805 392.141L267.352 400.652L290.883 280.991L274.862 276.986Z" fill="#FFB8B8"/>
<path d="M336.695 212.149C354.945 212.149 369.739 197.354 369.739 179.104C369.739 160.854 354.945 146.06 336.695 146.06C318.445 146.06 303.65 160.854 303.65 179.104C303.65 197.354 318.445 212.149 336.695 212.149Z" fill="#FFB8B8"/>
<path d="M392.52 233.928L373.841 225.71C373.841 225.71 345.958 239.435 312.913 223.914L286.878 228.921C286.878 228.921 286.878 272.48 282.372 275.984C277.866 279.489 272.358 294.008 275.362 302.52C278.366 311.031 283.373 334.563 274.361 339.069C265.349 343.575 235.309 357.594 226.797 373.616C218.286 389.637 168.719 378.122 166.716 398.649C164.713 419.177 198.759 442.709 187.244 464.238C175.728 485.767 170.221 490.273 203.766 492.776C237.311 495.28 270.856 469.745 298.894 489.772C326.932 509.799 361.979 516.809 375.497 505.293C389.016 493.778 406.038 469.245 428.569 469.745C451.099 470.246 469.123 466.741 466.119 452.222C463.115 437.702 478.636 445.212 463.115 426.187C447.594 407.161 402.534 398.649 396.025 380.125C389.516 361.6 359.976 354.089 359.976 354.089C359.976 354.089 354.97 347.08 362.98 342.574C370.991 338.068 392.52 233.928 392.52 233.928Z" fill="#2F2E41"/>
<path d="M293.887 233.427L286.878 228.921C286.878 228.921 253.333 247.947 256.337 257.96C259.341 267.974 261.844 264.969 260.843 273.481C259.842 281.992 255.335 282.493 262.846 284.496C270.356 286.498 272.358 281.492 272.358 288.501C272.358 295.511 284.875 293.508 284.875 293.508L293.887 233.427Z" fill="#2F2E41"/>
<path d="M386.513 236.431L392.521 233.928C392.521 233.928 420.058 254.455 417.054 273.481C414.05 292.507 401.032 272.98 399.029 277.987C397.027 282.994 390.518 282.994 390.017 291.005C389.517 299.015 396.025 300.517 389.517 302.019C383.008 303.521 369.99 267.974 369.99 267.974L386.513 236.431Z" fill="#2F2E41"/>
<path d="M367.737 138.049H305.653V173.597H367.737V138.049Z" fill="#FF6584"/>
<path d="M321.174 126.51C329.193 126.51 335.693 120.009 335.693 111.99C335.693 103.971 329.193 97.4707 321.174 97.4707C313.155 97.4707 306.654 103.971 306.654 111.99C306.654 120.009 313.155 126.51 321.174 126.51Z" fill="#FF6584"/>
<path d="M357.218 127.51C365.237 127.51 371.737 121.009 371.737 112.99C371.737 104.971 365.237 98.4707 357.218 98.4707C349.199 98.4707 342.698 104.971 342.698 112.99C342.698 121.009 349.199 127.51 357.218 127.51Z" fill="#FF6584"/>
<path d="M680.346 274.886C653.434 302.035 588.474 323.55 561.324 296.639C534.174 269.727 555.116 204.58 582.028 177.43C594.952 164.395 612.524 157.028 630.88 156.948C649.236 156.868 666.872 164.083 679.908 177.005C692.945 189.928 700.315 207.499 700.397 225.855C700.479 244.211 693.267 261.847 680.346 274.886V274.886Z" fill="#6C63FF"/>
<path d="M561.366 306.074C560.964 303.715 559.834 301.541 558.135 299.857C556.436 298.172 554.252 297.062 551.89 296.681L561.283 287.204L570.759 296.597L561.366 306.074Z" fill="#6C63FF"/>
<path d="M566.041 302.09C563.671 301.348 561.512 300.053 559.742 298.312C557.972 296.571 556.641 294.433 555.859 292.076L557.76 291.455C558.442 293.51 559.604 295.373 561.148 296.891C562.693 298.408 564.576 299.537 566.643 300.183L566.041 302.09Z" fill="#2F2E41"/>
<path d="M558.817 298.236L469.559 388.237L470.979 389.646L560.237 299.644L558.817 298.236Z" fill="#2F2E41"/>
<path opacity="0.4" d="M682.533 235.956C689.342 229.087 690.221 218.918 684.497 213.244C678.773 207.57 668.612 208.539 661.803 215.408C654.994 222.277 654.115 232.446 659.839 238.12C665.564 243.794 675.724 242.825 682.533 235.956Z" fill="white"/>
<path opacity="0.3" d="M104.702 277.268H98.7021V296.268H104.702V277.268Z" fill="#6C63FF"/>
<path opacity="0.3" d="M440.702 151.268H434.702V170.268H440.702V151.268Z" fill="#6C63FF"/>
<path opacity="0.3" d="M201.702 223.268H195.702V242.268H201.702V223.268Z" fill="#6C63FF"/>
<path opacity="0.3" d="M481.702 233.268H475.702V252.268H481.702V233.268Z" fill="#6C63FF"/>
<path opacity="0.3" d="M177.133 281.465L172.438 285.202L184.271 300.068L188.966 296.331L177.133 281.465Z" fill="#6C63FF"/>
<path opacity="0.3" d="M466.133 289.465L461.438 293.202L473.271 308.068L477.966 304.331L466.133 289.465Z" fill="#6C63FF"/>
<path opacity="0.3" d="M154.051 342.04L148.854 339.04L139.354 355.495L144.551 358.495L154.051 342.04Z" fill="#6C63FF"/>
<path opacity="0.3" d="M459.051 196.04L453.854 193.04L444.354 209.495L449.551 212.495L459.051 196.04Z" fill="#6C63FF"/>
<path opacity="0.3" d="M127.051 157.04L121.854 154.04L112.354 170.495L117.551 173.495L127.051 157.04Z" fill="#6C63FF"/>
</g>
<defs>
<clipPath id="clip0">
<rect width="705.281" height="719.476" fill="white"/>
</clipPath>
</defs>
</svg>
